<svg id="wave" style="transform:rotate(180deg); transition: 0.3s" viewBox="0 0 1440 320" version="1.1" xmlns="http://www.w3.org/2000/svg"><defs><linearGradient id="sw-gradient-0" x1="0" x2="0" y1="1" y2="0"><stop stop-color="rgba(0, 0, 0, 0.6509803921568628)" offset="0%"></stop><stop stop-color="rgba(177, 243, 234, 0.788)" offset="100%"></stop></linearGradient></defs><path style="transform:translate(0, 0px); opacity:1" fill="url(#sw-gradient-0)" d="M0,288L48,266.7C96,245,192,203,288,192C384,181,480,203,576,186.7C672,171,768,117,864,117.3C960,117,1056,171,1152,181.3C1248,192,1344,160,1440,122.7C1536,85,1632,43,1728,58.7C1824,75,1920,149,2016,149.3C2112,149,2208,75,2304,58.7C2400,43,2496,85,2592,133.3C2688,181,2784,235,2880,229.3C2976,224,3072,160,3168,160C3264,160,3360,224,3456,240C3552,256,3648,224,3744,218.7C3840,213,3936,235,4032,240C4128,245,4224,235,4320,213.3C4416,192,4512,160,4608,133.3C4704,107,4800,85,4896,85.3C4992,85,5088,107,5184,117.3C5280,128,5376,128,5472,128C5568,128,5664,128,5760,106.7C5856,85,5952,43,6048,58.7C6144,75,6240,149,6336,149.3C6432,149,6528,75,6624,69.3C6720,64,6816,128,6864,160L6912,192L6912,320L6864,320C6816,320,6720,320,6624,320C6528,320,6432,320,6336,320C6240,320,6144,320,6048,320C5952,320,5856,320,5760,320C5664,320,5568,320,5472,320C5376,320,5280,320,5184,320C5088,320,4992,320,4896,320C4800,320,4704,320,4608,320C4512,320,4416,320,4320,320C4224,320,4128,320,4032,320C3936,320,3840,320,3744,320C3648,320,3552,320,3456,320C3360,320,3264,320,3168,320C3072,320,2976,320,2880,320C2784,320,2688,320,2592,320C2496,320,2400,320,2304,320C2208,320,2112,320,2016,320C1920,320,1824,320,1728,320C1632,320,1536,320,1440,320C1344,320,1248,320,1152,320C1056,320,960,320,864,320C768,320,672,320,576,320C480,320,384,320,288,320C192,320,96,320,48,320L0,320Z"></path><defs><linearGradient id="sw-gradient-1" x1="0" x2="0" y1="1" y2="0"><stop stop-color="rgba(0, 0, 0, 0.6509803921568628)" offset="0%"></stop><stop stop-color="rgba(177, 243, 234, 0.788)" offset="100%"></stop></linearGradient></defs><path style="transform:translate(0, 50px); opacity:0.9" fill="url(#sw-gradient-1)" d="M0,0L48,32C96,64,192,128,288,133.3C384,139,480,85,576,85.3C672,85,768,139,864,181.3C960,224,1056,256,1152,245.3C1248,235,1344,181,1440,144C1536,107,1632,85,1728,80C1824,75,1920,85,2016,117.3C2112,149,2208,203,2304,197.3C2400,192,2496,128,2592,112C2688,96,2784,128,2880,160C2976,192,3072,224,3168,202.7C3264,181,3360,107,3456,90.7C3552,75,3648,117,3744,144C3840,171,3936,181,4032,170.7C4128,160,4224,128,4320,133.3C4416,139,4512,181,4608,176C4704,171,4800,117,4896,112C4992,107,5088,149,5184,160C5280,171,5376,149,5472,122.7C5568,96,5664,64,5760,42.7C5856,21,5952,11,6048,53.3C6144,96,6240,192,6336,229.3C6432,267,6528,245,6624,208C6720,171,6816,117,6864,90.7L6912,64L6912,320L6864,320C6816,320,6720,320,6624,320C6528,320,6432,320,6336,320C6240,320,6144,320,6048,320C5952,320,5856,320,5760,320C5664,320,5568,320,5472,320C5376,320,5280,320,5184,320C5088,320,4992,320,4896,320C4800,320,4704,320,4608,320C4512,320,4416,320,4320,320C4224,320,4128,320,4032,320C3936,320,3840,320,3744,320C3648,320,3552,320,3456,320C3360,320,3264,320,3168,320C3072,320,2976,320,2880,320C2784,320,2688,320,2592,320C2496,320,2400,320,2304,320C2208,320,2112,320,2016,320C1920,320,1824,320,1728,320C1632,320,1536,320,1440,320C1344,320,1248,320,1152,320C1056,320,960,320,864,320C768,320,672,320,576,320C480,320,384,320,288,320C192,320,96,320,48,320L0,320Z"></path></svg>