<svg id="wave" style="transform:rotate(0deg); transition: 0.3s" viewBox="0 0 1440 240" version="1.1" xmlns="http://www.w3.org/2000/svg"><defs><linearGradient id="sw-gradient-0" x1="0" x2="0" y1="1" y2="0"><stop stop-color="rgba(177, 243, 234, 0.79)" offset="0%"></stop><stop stop-color="rgba(42.373, 73.177, 68.977, 0.79)" offset="100%"></stop></linearGradient></defs><path style="transform:translate(0, 0px); opacity:1" fill="url(#sw-gradient-0)" d="M0,48L21.8,44C43.6,40,87,32,131,36C174.5,40,218,56,262,60C305.5,64,349,56,393,80C436.4,104,480,160,524,180C567.3,200,611,184,655,168C698.2,152,742,136,785,128C829.1,120,873,120,916,136C960,152,1004,184,1047,184C1090.9,184,1135,152,1178,136C1221.8,120,1265,120,1309,112C1352.7,104,1396,88,1440,84C1483.6,80,1527,88,1571,80C1614.5,72,1658,48,1702,40C1745.5,32,1789,40,1833,52C1876.4,64,1920,80,1964,96C2007.3,112,2051,128,2095,132C2138.2,136,2182,128,2225,112C2269.1,96,2313,72,2356,56C2400,40,2444,32,2487,60C2530.9,88,2575,152,2618,168C2661.8,184,2705,152,2749,124C2792.7,96,2836,72,2880,84C2923.6,96,2967,144,3011,160C3054.5,176,3098,160,3120,152L3141.8,144L3141.8,240L3120,240C3098.2,240,3055,240,3011,240C2967.3,240,2924,240,2880,240C2836.4,240,2793,240,2749,240C2705.5,240,2662,240,2618,240C2574.5,240,2531,240,2487,240C2443.6,240,2400,240,2356,240C2312.7,240,2269,240,2225,240C2181.8,240,2138,240,2095,240C2050.9,240,2007,240,1964,240C1920,240,1876,240,1833,240C1789.1,240,1745,240,1702,240C1658.2,240,1615,240,1571,240C1527.3,240,1484,240,1440,240C1396.4,240,1353,240,1309,240C1265.5,240,1222,240,1178,240C1134.5,240,1091,240,1047,240C1003.6,240,960,240,916,240C872.7,240,829,240,785,240C741.8,240,698,240,655,240C610.9,240,567,240,524,240C480,240,436,240,393,240C349.1,240,305,240,262,240C218.2,240,175,240,131,240C87.3,240,44,240,22,240L0,240Z"></path></svg>