<svg id="wave" style="transform:rotate(0deg); transition: 0.3s" viewBox="0 0 1440 100" version="1.1" xmlns="http://www.w3.org/2000/svg"><defs><linearGradient id="sw-gradient-0" x1="0" x2="0" y1="1" y2="0"><stop stop-color="rgba(53, 72, 69, 1)" offset="0%"></stop><stop stop-color="rgba(53, 72, 69, 1)" offset="100%"></stop></linearGradient></defs><path style="transform:translate(0, 0px); opacity:1" fill="url(#sw-gradient-0)" d="M0,20L80,16.7C160,13,320,7,480,16.7C640,27,800,53,960,53.3C1120,53,1280,27,1440,23.3C1600,20,1760,40,1920,41.7C2080,43,2240,27,2400,23.3C2560,20,2720,30,2880,31.7C3040,33,3200,27,3360,21.7C3520,17,3680,13,3840,18.3C4000,23,4160,37,4320,50C4480,63,4640,77,4800,71.7C4960,67,5120,43,5280,31.7C5440,20,5600,20,5760,31.7C5920,43,6080,67,6240,75C6400,83,6560,77,6720,76.7C6880,77,7040,83,7200,78.3C7360,73,7520,57,7680,50C7840,43,8000,47,8160,46.7C8320,47,8480,43,8640,43.3C8800,43,8960,47,9120,48.3C9280,50,9440,50,9600,53.3C9760,57,9920,63,10080,63.3C10240,63,10400,57,10560,48.3C10720,40,10880,30,11040,31.7C11200,33,11360,47,11440,53.3L11520,60L11520,100L11440,100C11360,100,11200,100,11040,100C10880,100,10720,100,10560,100C10400,100,10240,100,10080,100C9920,100,9760,100,9600,100C9440,100,9280,100,9120,100C8960,100,8800,100,8640,100C8480,100,8320,100,8160,100C8000,100,7840,100,7680,100C7520,100,7360,100,7200,100C7040,100,6880,100,6720,100C6560,100,6400,100,6240,100C6080,100,5920,100,5760,100C5600,100,5440,100,5280,100C5120,100,4960,100,4800,100C4640,100,4480,100,4320,100C4160,100,4000,100,3840,100C3680,100,3520,100,3360,100C3200,100,3040,100,2880,100C2720,100,2560,100,2400,100C2240,100,2080,100,1920,100C1760,100,1600,100,1440,100C1280,100,1120,100,960,100C800,100,640,100,480,100C320,100,160,100,80,100L0,100Z"></path></svg>