<svg id="visual" viewBox="0 0 900 600" width="900" height="600" xmlns="http://www.w3.org/2000/svg" xmlns:xlink="http://www.w3.org/1999/xlink" version="1.1"><rect x="0" y="0" width="900" height="600" fill="#B1F3EA"></rect><defs><linearGradient id="grad1_0" x1="33.3%" y1="0%" x2="100%" y2="100%"><stop offset="20%" stop-color="#b1f3ea" stop-opacity="1"></stop><stop offset="80%" stop-color="#b1f3ea" stop-opacity="1"></stop></linearGradient></defs><defs><linearGradient id="grad2_0" x1="0%" y1="0%" x2="66.7%" y2="100%"><stop offset="20%" stop-color="#b1f3ea" stop-opacity="1"></stop><stop offset="80%" stop-color="#b1f3ea" stop-opacity="1"></stop></linearGradient></defs><g transform="translate(900, 0)"><path d="M0 351.5C-70.3 347.4 -140.5 343.3 -175.8 304.4C-211 265.6 -211.2 192 -234.7 135.5C-258.2 79 -304.8 39.5 -351.5 0L0 0Z" fill="#354845"></path></g><g transform="translate(0, 600)"><path d="M0 -351.5C69.2 -346.8 138.4 -342.1 175.8 -304.4C213.1 -266.8 218.5 -196.2 242.5 -140C266.5 -83.8 309 -41.9 351.5 0L0 0Z" fill="#354845"></path></g></svg>